PathFileType	4	(X/Y/Z)	D:\TRACE\spot_10-12-23\spot_arm_body_motion_1_10-v60.trc
DataRate	CameraRate	NumFrames	NumMarkers	Units	OrigDataRate	OrigDataStartFrame	OrigNumFrames
100.00	100.00	      42	9	mm	100.00	2626	      7000
Frame#	Time	front left toe			Front right toe			aft left toe			aft right toe			Arm			FL body			FR body			AL Body			AR Body			
		X1	Y1	Z1	X2	Y2	Z2	X3	Y3	Z3	X4	Y4	Z4	X5	Y5	Z5	X6	Y6	Z6	X7	Y7	Z7	X8	Y8	Z8	X9	Y9	Z9	

2626	26.250	-279.44064	13.82362	-437.30139	165.55075	0.23780	-423.88388	-250.52451	30.91925	149.06189	137.53830	18.72381	163.47600	24.51090	761.67468	-750.98120	-48.63263	579.59680	-472.44952	105.80246	585.51410	-471.30563	-60.55419	562.44818	409.56464	81.12843	562.47705	413.76337	
2627	26.260	-280.18506	13.59923	-437.26947	165.14520	0.14192	-423.89151	-251.19753	30.99515	148.91078	137.07874	18.78220	163.46129	23.77976	761.50922	-751.10760	-49.66254	579.50684	-472.85617	105.14043	585.32098	-472.05127	-61.92136	562.40515	409.28183	79.66973	562.51385	413.35779	
2628	26.270	-280.82791	13.43403	-437.23569	164.43713	-0.05480	-423.93851	-251.72853	31.12272	148.81502	136.80363	18.93267	163.37758	23.09059	761.33679	-751.30188	-50.63895	579.29517	-473.20609	104.30541	585.19397	-472.27121	-63.01563	562.52856	409.15375	78.45251	562.38617	413.04266	
2629	26.280	-281.15601	13.30663	-437.30035	162.24690	-0.99160	-426.43759	-252.22328	31.16246	148.72433	136.25819	18.95465	163.28348	22.38520	761.16864	-751.47089	-51.65951	579.18713	-473.34766	103.21980	585.08661	-472.44452	-64.20255	562.61713	408.81470	77.38133	562.39386	412.94775	
2630	26.290	-281.70621	13.30457	-437.45984	161.43112	-0.98308	-425.56412	-252.69904	31.24234	148.67183	135.59492	18.96569	163.24049	21.72209	761.05457	-751.65552	-52.85369	578.95551	-473.55676	102.05753	584.86542	-472.52585	-65.27885	562.67743	408.57202	76.79394	562.49500	413.11377	
2631	26.300	-282.22513	13.12663	-437.50723	161.12042	-0.95362	-425.51151	-253.54112	31.57805	148.77348	134.98148	19.02902	163.22441	21.00296	760.84192	-751.85461	-53.92039	578.88391	-473.88953	100.85005	584.80066	-472.88620	-66.18374	562.58118	408.31906	75.56127	562.58350	412.77850	
2632	26.310	-282.84229	13.05691	-437.41107	160.76381	-0.85505	-425.48166	-253.80196	31.20575	148.75507	134.63808	19.16817	163.18103	20.34857	760.74182	-751.97766	-55.25528	578.70239	-474.11588	98.43645	584.08276	-471.97952	-67.25807	562.59314	408.68219	74.06573	562.67566	412.01868	
2633	26.320	-281.69571	16.84631	-436.76639	160.16644	-1.12229	-425.54654	-254.23869	30.88035	148.92401	134.30705	19.22001	163.29768	19.70724	760.69287	-752.05524	-56.30407	578.50250	-474.51523	98.51079	584.25092	-472.06305	-68.76665	562.72211	407.77448	72.76960	562.75031	411.81204	
2634	26.330	-280.95096	26.51581	-433.18021	159.83231	-1.27638	-425.53973	-254.56726	30.87271	148.86940	134.04805	19.17770	163.22543	19.28988	760.67865	-752.07471	-57.38599	578.16949	-474.87961	97.35214	584.07635	-472.46158	-70.54272	562.51721	407.19049	70.89791	562.69421	411.19141	
2635	26.340	-279.83154	35.87985	-427.47229	159.42899	-1.49968	-425.60751	-254.98079	30.73423	148.82724	133.47522	19.29856	163.22888	18.91702	760.60431	-752.06714	-58.36438	577.60272	-475.56085	94.87074	583.54279	-473.18625	-72.11077	562.59955	406.58463	69.54058	562.79224	410.79123	
2636	26.350	-280.61984	47.12643	-425.33755	159.04893	-1.55802	-425.62875	-255.40421	30.68452	148.85327	132.82060	19.45547	163.22862	18.46991	760.49847	-752.11896	-59.89362	577.04242	-476.06546	93.56641	583.10400	-473.69141	-73.28448	562.76984	406.46591	68.37128	563.29736	410.58234	
2637	26.360	-280.95453	58.93304	-427.84860	158.49306	-1.60734	-425.78409	-255.81602	30.75455	148.86945	132.42690	19.63639	163.22876	17.78465	760.30688	-752.24316	-61.67073	576.47485	-476.22336	92.09201	582.42358	-474.19122	-74.66344	563.34448	406.17319	66.88257	563.62921	409.85486	
2638	26.370	-280.91974	71.03375	-433.34839	157.98874	-1.45944	-425.99832	-256.09882	30.74781	148.72861	132.26906	19.70820	163.14207	17.00101	759.92767	-752.30096	-63.46902	576.39673	-476.51193	90.02061	582.19678	-474.57214	-75.88164	563.55554	405.54593	65.57982	563.82416	409.60394	
2639	26.380	-279.31232	83.49236	-438.53146	159.71704	-0.44256	-424.51419	-256.33044	30.84065	148.76097	132.16647	19.71104	163.05457	16.08703	759.60577	-752.36572	-65.46381	576.35516	-476.90891	88.26854	582.19073	-475.04971	-77.16057	563.41852	405.39871	64.67770	563.83362	409.51602	
2640	26.390	-277.19611	94.16832	-441.25275	159.36855	-0.28326	-424.64481	-256.71890	30.59211	148.64468	131.95000	19.72767	162.91354	15.39293	759.34302	-752.23468	-67.31915	576.61884	-477.13766	86.28651	582.46527	-475.41498	-78.77365	563.22986	404.88541	62.85489	563.73370	408.89905	
2641	26.400	-275.35007	103.65400	-441.16690	158.98785	-0.16896	-424.69043	-256.99973	30.60731	148.57298	131.72446	19.76542	162.82330	14.75353	759.12457	-752.09149	-68.98791	576.89343	-477.44727	85.82128	583.25043	-475.37991	-80.36340	563.11255	404.61374	61.54293	563.35980	408.86481	
2642	26.410	-274.70914	111.91674	-440.04285	158.80901	-0.18070	-424.70770	-257.21570	30.51497	148.58188	131.36526	19.88740	162.79305	14.03256	758.55774	-752.10278	-70.68927	577.36621	-478.05951	83.10879	583.04791	-476.07504	-82.36800	562.79810	404.27649	59.28481	563.20850	408.11353	
2643	26.420	-276.17438	119.33302	-439.73355	158.71939	-0.18687	-424.65558	-257.58795	30.27493	148.56042	130.97610	20.01417	162.79968	12.50560	757.65570	-752.27942	-72.00006	577.80011	-478.27078	82.89188	583.84808	-476.20364	-84.80496	562.85107	403.89114	57.07766	562.74152	408.05194	
2644	26.430	-277.50549	126.24389	-441.76709	158.67117	-0.16223	-424.56329	-258.13049	30.33159	148.64024	130.72641	20.11406	162.87550	10.17699	755.88562	-752.89465	-73.37126	578.46155	-478.48981	80.28530	583.86023	-476.29691	-86.62107	562.30676	403.66852	54.78539	562.67035	407.78619	
2645	26.440	-280.15823	131.60719	-445.43890	158.69850	-0.05612	-424.25476	-258.42841	30.11378	148.57397	130.43388	20.18670	162.90691	6.20827	753.67102	-753.76898	-74.16344	578.90381	-478.56311	80.67673	584.39929	-476.31403	-89.16984	562.26019	403.39301	52.22677	562.00690	407.73218	
2646	26.450	-281.64017	135.18628	-449.77844	158.88510	-0.21854	-424.03406	-258.62003	29.96673	148.50980	130.12932	20.28907	162.99937	0.80351	750.56659	-755.00287	-74.99796	579.42773	-478.60699	79.53426	584.81818	-476.59088	-91.64881	562.07050	403.34079	49.82561	561.50476	407.93295	
2647	26.460	-283.52527	135.75269	-452.51633	159.18654	-0.41763	-423.75378	-258.79840	29.81280	148.43349	129.75496	20.73555	163.27747	-5.92532	746.99072	-756.13257	-75.94193	579.91876	-478.95374	77.53141	584.82147	-476.67432	-94.12556	561.81232	402.93961	47.52755	561.01233	408.13321	
2648	26.470	-286.16165	135.34630	-454.62329	159.50542	-0.54798	-423.59784	-259.03665	29.66454	148.35245	129.59311	21.00071	163.32726	-12.87574	743.20703	-757.48834	-77.16820	579.92767	-479.20139	77.36483	584.74139	-476.65558	-96.45654	561.77087	402.84048	44.85617	560.91840	407.98572	
2649	26.480	-288.55673	133.92467	-455.47165	159.34041	-0.60794	-423.67642	-259.18320	29.25080	148.40323	129.61830	21.23692	163.29848	-19.33144	739.51440	-758.92444	-78.99325	579.45782	-479.37643	76.02910	584.47009	-477.19803	-98.52502	562.15479	402.52695	43.04603	561.21649	407.98456	
2650	26.490	-292.05069	132.56970	-455.83163	158.81343	-0.53310	-424.06955	-259.27380	29.03276	148.45049	129.55005	21.68026	163.16602	-24.52499	736.36133	-759.93555	-81.20080	578.66650	-479.59238	73.30500	583.58484	-477.21964	-99.84597	562.55463	402.38443	41.96334	561.77283	407.77246	
2651	26.500	-295.51752	131.99664	-456.40939	158.34192	-0.42813	-424.53992	-259.15070	29.07963	148.62141	129.60909	21.87216	163.01607	-28.12494	733.55023	-760.73328	-84.45795	577.58008	-479.98001	69.36935	582.98029	-478.27206	-101.07307	563.31012	402.03928	40.57723	562.44757	406.88937	
2652	26.510	-299.09427	131.86276	-457.41119	157.80382	-0.12683	-424.93546	-258.99008	29.12212	148.71376	129.72203	22.10490	162.97134	-30.50132	731.70123	-761.36023	-88.22088	576.47906	-480.26788	65.52106	582.02942	-479.25604	-101.89291	563.93445	401.90347	39.85592	563.35559	406.05038	
2653	26.520	-301.40488	131.32655	-458.82385	157.18224	0.57758	-425.36142	-258.95432	29.20006	148.87631	129.95117	22.01352	162.60506	-31.18468	730.28955	-761.75537	-92.47341	575.38086	-480.41248	62.04349	581.53998	-479.48792	-102.33524	564.50293	401.79178	39.32861	564.04083	405.35941	
2654	26.530	-302.56204	130.90407	-459.64249	156.74228	1.40346	-425.48648	-258.87656	29.25631	149.09450	130.05194	21.94562	162.26144	-30.17825	729.66882	-762.10809	-97.21156	574.55219	-480.71341	56.54519	580.80109	-480.65491	-102.52924	564.80756	401.64951	39.33638	564.51550	405.07843	
2655	26.540	-301.69516	129.06046	-459.63712	155.40169	1.59727	-426.38632	-258.63519	29.33120	149.22934	129.89061	22.02582	161.85355	-27.91415	729.94617	-762.10370	-102.00769	573.93372	-480.89227	52.56017	580.20544	-481.51544	-103.55531	565.65698	401.30893	38.19731	565.05438	403.42511	
2656	26.550	-299.17130	123.83927	-459.50949	154.60327	2.44538	-426.58029	-258.39832	29.34730	149.47037	129.96393	22.02785	161.60333	-25.06397	730.32373	-762.12903	-106.66986	573.46472	-481.38412	46.92937	579.64026	-482.77692	-104.31605	565.55981	400.82364	37.35882	565.36884	402.65439	
2657	26.560	-295.55603	116.75286	-459.62564	154.14011	2.80943	-426.87527	-258.41983	29.02615	149.57990	129.97920	21.90412	161.33615	-21.66045	731.16742	-762.02032	-110.77517	572.97638	-481.88187	43.00019	579.52472	-484.17859	-106.32235	565.99249	400.38623	34.52919	567.68903	402.76834	
2658	26.570	-290.97589	107.61015	-460.16528	154.14905	2.87948	-426.90018	-258.53662	28.67217	149.68137	129.92348	22.13589	161.16428	-18.17115	732.08862	-761.74231	-114.17722	572.59851	-482.56003	39.60484	578.89008	-484.62646	-108.90421	566.32556	399.76758	31.75348	568.12122	401.85794	
2659	26.580	-286.52451	97.21030	-460.58286	154.64699	2.87088	-426.62796	-258.64014	28.25308	149.56590	129.60596	22.33962	160.90221	-15.31838	732.80933	-761.47516	-116.75436	572.05219	-483.49615	36.96675	578.41974	-485.53305	-112.55154	566.82092	398.85706	28.37887	568.63141	401.05377	
2660	26.590	-282.43668	86.08147	-460.49353	155.80757	2.63362	-426.25085	-258.78455	27.74409	149.42389	129.42133	23.15420	160.71442	-13.34555	733.69916	-761.24811	-118.71239	571.39105	-484.32953	35.16618	578.09949	-485.89658	-116.71809	567.16394	398.05710	25.22837	569.33588	401.05298	
2661	26.600	-278.55344	75.12659	-459.91690	156.39352	2.30886	-425.98587	-259.05661	27.16116	149.08084	128.63278	23.59864	160.58250	-12.65921	734.36084	-761.08142	-119.91664	571.21606	-485.49707	33.59625	577.67633	-486.21796	-121.38147	567.28394	396.95218	19.43220	569.24677	399.79794	
2662	26.610	-275.20447	64.79469	-458.48056	156.93436	1.78272	-425.73553	-260.05392	26.90981	149.04388	129.01219	25.03210	161.86455	-13.21526	734.99139	-761.10876	-120.88155	570.98871	-486.59854	32.49847	577.37909	-486.66437	-126.33369	567.14636	395.75018	15.23300	567.45807	398.63464	
2663	26.620	-271.86139	54.20820	-457.18790	157.35930	1.63989	-425.40225	-260.28357	26.14567	148.86745	129.19511	25.01816	162.27605	-15.22737	735.62177	-760.94513	-121.60453	571.12830	-487.52606	31.75973	577.34503	-486.95364	-131.40504	566.71930	394.60312	10.15010	567.07062	398.19632	
2664	26.630	-269.30197	43.94890	-456.23825	157.96489	1.63563	-425.17200	-260.36612	25.82771	148.55984	129.23566	25.03768	162.48183	-17.71171	735.85620	-760.97583	-122.63229	571.32544	-488.74579	31.01435	577.47137	-487.31470	-135.90039	566.29779	393.59515	5.42564	566.49915	397.65045	
2665	26.640	-266.98544	33.77729	-455.57861	158.70630	1.77532	-424.89548	-260.22827	25.55758	148.42578	129.22772	25.37775	162.45871	-20.53337	736.21228	-760.93579	-123.95313	571.56757	-489.79694	29.72004	577.47070	-488.32388	-140.31697	565.98914	392.55380	1.26708	565.93542	397.07950	
2666	26.650	-265.62683	23.68922	-455.54312	159.13420	1.91538	-424.69165	-260.11337	25.38168	148.27785	129.28928	25.63259	162.53413	-23.14725	736.50159	-760.82135	-125.73886	571.89417	-490.68118	28.87615	577.53088	-488.81924	-144.18129	565.85352	391.22849	-2.61105	565.55579	396.33734	
2667	26.660	-265.34763	13.60525	-455.70709	159.54581	2.17123	-424.51523	-259.90012	25.13297	148.29881	129.48128	25.81371	162.53639	-25.61849	736.63239	-760.97406	-128.09109	572.14276	-491.76346	26.81084	577.62122	-489.68539	-147.72255	565.44287	390.44379	-5.84015	565.00000	395.72046	
